HIERARCHY
ROOT Hips
{
  OFFSET 0 0 0
  CHANNELS 6 Xposition Yposition Zposition Zrotation Xrotation Yrotation
  JOINT Spine
  {
    OFFSET 0 8.08348 0
    CHANNELS 3 Zrotation Xrotation Yrotation
    JOINT Spine1
    {
      OFFSET 0 24.6145 0
      CHANNELS 3 Zrotation Xrotation Yrotation
      JOINT Neck
      {
        OFFSET 0 24.5134 2.22849
        CHANNELS 3 Zrotation Xrotation Yrotation
        JOINT Head
        {
          OFFSET 0 13.8011 -1.97158
          CHANNELS 3 Zrotation Xrotation Yrotation
          End Site
          {
            OFFSET 0 19.7158 0
          }
        }
      }
      JOINT LeftShoulder
      {
        OFFSET 3.94856 23.7669 -0.001842
        CHANNELS 3 Zrotation Xrotation Yrotation
        JOINT LeftArm
        {
          OFFSET 8.44442 0 0
          CHANNELS 3 Zrotation Xrotation Yrotation
          JOINT LeftForeArm
          {
            OFFSET 36.6799 0 0
            CHANNELS 3 Zrotation Xrotation Yrotation
            JOINT LeftHand
            {
              OFFSET 28.1618 0 0
              CHANNELS 3 Zrotation Xrotation Yrotation
              End Site
              {
                OFFSET 14.7869 0 0
              }
            }
          }
        }
      }
      JOINT RightShoulder
      {
        OFFSET -3.93736 23.7669 -0.001842
        CHANNELS 3 Zrotation Xrotation Yrotation
        JOINT RightArm
        {
          OFFSET -8.44442 0 0
          CHANNELS 3 Zrotation Xrotation Yrotation
          JOINT RightForeArm
          {
            OFFSET -36.6799 0 0
            CHANNELS 3 Zrotation Xrotation Yrotation
            JOINT RightHand
            {
              OFFSET -28.1618 0 0
              CHANNELS 3 Zrotation Xrotation Yrotation
              End Site
              {
                OFFSET -14.7869 0 0
              }
            }
          }
        }
      }
    }
  }
  JOINT LeftUpLeg
  {
    OFFSET 9.8579 0 0
    CHANNELS 3 Zrotation Xrotation Yrotation
    JOINT LeftLeg
    {
      OFFSET 0 -43.507 0
      CHANNELS 3 Zrotation Xrotation Yrotation
      JOINT LeftFoot
      {
        OFFSET 0 -37.4368 0
        CHANNELS 3 Zrotation Xrotation Yrotation
        JOINT LeftToeBase
        {
          OFFSET 0 -6.40764 14.7869
          CHANNELS 3 Zrotation Xrotation Yrotation
          End Site
          {
            OFFSET 0 0 3.94316
          }
        }
      }
    }
  }
  JOINT RightUpLeg
  {
    OFFSET -9.8579 0 0
    CHANNELS 3 Zrotation Xrotation Yrotation
    JOINT RightLeg
    {
      OFFSET 0 -43.507 0
      CHANNELS 3 Zrotation Xrotation Yrotation
      JOINT RightFoot
      {
        OFFSET 0 -37.4368 0
        CHANNELS 3 Zrotation Xrotation Yrotation
        JOINT RightToeBase
        {
          OFFSET 0 -6.40764 14.7869
          CHANNELS 3 Zrotation Xrotation Yrotation
          End Site
          {
            OFFSET 0 0 3.94316
          }
        }
      }
    }
  }
}
MOTION
Frames:	15
Frame Time:	0.0166667
6.69011 134.769 -57.1926 -3.14675 3.29933 -1.67347 0.472401 9.06158 -5.26842 -0.006361 -0.578061 -1.73999 4.14318 17.5416 -24.5038 19.528 -21.2397 -19.3044 3.32673 7.32987 -5.23187 -53.662 35.186 -6.87876 11.4361 -12.47 -42.1899 -3.20101 -8.24194 4.651 3.63187 7.90559 0.435822 58.2523 25.7096 0.203842 -0.854787 -5.5955 35.4091 2.70658 -5.46296 -5.86871 3.96209 -2.17622 5.35357 -4.24436 8.00477 -2.49229 1.03114 -4.95018 10.3483 1.98785e-016 -7.95139e-016 -0 5.38498 -24.965 1.82618 3.27504 33.5863 15.9639 -5.37746 -7.42919 -25.5724 -1.98785e-016 1.19271e-015 1.59028e-015 
6.70846 134.678 -56.7978 -2.8904 3.26942 -1.35043 0.323252 8.99713 -5.46463 0.105353 -0.423296 -1.80906 4.06775 17.7287 -24.3094 19.3885 -20.5062 -19.259 3.25753 7.42639 -5.20782 -53.9517 35.5321 -6.82814 11.1865 -12.4205 -42.1917 -3.44765 -8.29472 4.54574 3.58815 7.86668 0.289063 58.4111 25.7027 -0.024006 -0.661957 -5.33709 34.9142 3.0466 -5.28634 -5.87053 3.68651 -1.83614 5.52988 -4.30625 7.69541 -2.32434 0.975342 -5.06031 10.0334 8.94531e-016 7.95139e-016 1.59028e-015 5.08364 -24.4036 3.12899 3.66589 30.8291 15.4876 -3.96284 -6.20948 -25.504 3.97569e-016 3.97569e-016 -0 
6.73403 134.537 -56.3609 -2.54175 3.27138 -0.959081 0.165246 8.81451 -5.70871 0.097568 -0.26703 -1.89506 4.05038 17.9425 -23.9635 19.1435 -19.5384 -19.1205 3.21961 7.6111 -5.12203 -54.1396 35.9334 -6.89017 10.9361 -12.2914 -42.1866 -4.03706 -8.27768 4.35657 3.63617 7.84861 0.281333 58.5959 25.5029 -0.366476 -0.548023 -5.09695 34.3751 3.46725 -5.11028 -6.00618 3.32411 -1.56205 5.40661 -4.31492 7.5419 -2.20624 0.720993 -5.39058 9.75205 1.98785e-016 7.95139e-016 3.18055e-015 4.6897 -23.7337 4.12983 4.24148 28.1489 13.755 -3.11542 -4.41767 -25.2798 -8.94531e-016 3.97569e-016 1.59028e-015 
6.74697 134.356 -55.8698 -2.08118 3.2621 -0.589652 -0.153789 8.53981 -5.82454 0.181239 -0.015833 -1.94215 3.83824 17.9798 -23.509 18.9316 -18.0234 -18.9526 3.19494 7.72749 -5.15613 -54.407 36.3193 -6.88434 10.6843 -12.0651 -42.2277 -4.86196 -8.1627 4.12439 3.58149 7.79916 0.13653 58.8919 25.2722 -0.731773 -0.599194 -4.63053 33.84 4.03021 -4.6644 -6.11427 2.83272 -1.18934 5.19646 -4.39787 7.43501 -2.18214 1.1374 -5.73015 9.59998 3.97569e-016 7.95139e-016 1.59028e-015 4.17248 -22.8756 4.82478 4.61696 25.8667 11.7116 -6.99545 -1.59337 -23.5822 9.93923e-017 0 7.95139e-016 
6.75909 134.146 -55.3711 -1.58548 3.24763 -0.104256 -0.369369 8.28569 -5.99861 0.06643 0.147184 -2.00568 3.92956 18.0343 -22.8856 18.1887 -16.3389 -18.7689 3.38588 7.93432 -5.30746 -54.7432 36.7233 -6.896 10.4392 -11.8325 -42.2812 -5.5921 -8.03282 3.92491 3.68696 7.79425 -0.003173 59.1153 24.854 -1.11166 -0.498609 -4.30867 33.3353 4.23067 -4.39163 -6.26393 2.32054 -0.767302 4.79299 -4.47823 7.17603 -2.16628 1.25211 -6.12482 9.46365 1.98785e-016 -7.95139e-016 3.18055e-015 3.6917 -22.0598 4.52874 4.73427 24.4123 9.92403 -10.0962 -0.566688 -22.1475 9.93923e-016 0 -7.95139e-016 
6.77332 133.941 -54.8577 -1.05489 3.25111 0.355078 -0.653901 8.02397 -6.07315 0.084263 0.261979 -2.03727 3.73869 18.0369 -22.0704 17.6749 -14.2831 -18.3648 3.32669 7.99906 -5.27059 -54.8609 37.2498 -6.95847 10.1918 -11.3855 -42.3245 -6.56214 -7.70304 3.89021 3.64068 7.72955 -0.220065 59.4314 24.3481 -1.50947 -0.446005 -3.8697 32.7433 4.73398 -4.00133 -6.33446 1.74207 -0.424552 4.33036 -4.41959 6.99658 -2.21407 0.65781 -6.72655 9.50122 2.98177e-016 0 -0 3.25807 -21.3812 3.58335 4.2837 24.0183 10.1385 -10.974 -1.81004 -22.5838 -7.45443e-017 -3.97569e-016 7.95139e-016 
6.7794 133.76 -54.3397 -0.545551 3.24511 0.750097 -0.811575 7.81421 -6.11552 -0.102853 0.317359 -2.05427 3.67963 18.039 -21.102 17.0783 -12.141 -17.8123 3.40937 8.08911 -5.13395 -54.9469 37.8197 -7.17594 10.0212 -10.8505 -42.2182 -7.40916 -7.27246 3.96206 3.80862 7.7811 -0.296656 59.6068 23.7743 -1.90607 -0.173139 -3.68875 32.2125 4.56678 -3.8938 -6.3795 1.17517 -0.033445 3.85544 -4.31108 6.8464 -2.27226 0.644158 -7.10154 9.68429 6.95746e-016 0 -0 2.90959 -20.8236 2.7036 3.78496 24.1957 11.1667 -12.4389 -3.17206 -23.246 1.61513e-016 4.96962e-017 -0 
6.77846 133.624 -53.831 -0.093179 3.27766 0.956186 -0.875864 7.67689 -6.01736 -0.287026 0.238579 -2.02255 3.58716 17.9116 -20.0718 16.235 -9.54596 -17.297 3.41426 8.05948 -4.94435 -55.088 38.3725 -7.25052 9.83881 -10.2288 -42.0279 -8.01146 -6.75571 3.97393 3.84986 7.74403 -0.480881 59.9008 23.4207 -2.27318 -0.0279129 -3.60638 31.6059 4.75339 -3.86114 -6.31445 0.718108 0.354624 3.57562 -4.25077 6.71226 -2.10347 0.563235 -7.36434 9.59987 -9.93923e-017 -3.97569e-016 -4.77083e-015 2.62418 -20.3948 2.11127 3.33406 24.2728 12.3067 -13.3054 -4.09782 -24.1381 -1.10574e-015 -9.93923e-017 -0 
6.74611 133.516 -53.328 0.2133 3.29032 1.07745 -0.760712 7.60794 -5.89805 -0.499621 0.039445 -1.98059 3.40123 17.7928 -18.858 15.3903 -6.55103 -16.607 3.28916 8.04621 -4.56104 -54.985 39.0079 -7.48483 9.56023 -9.54694 -41.6767 -8.41397 -6.22737 4.03873 3.9124 7.72347 -0.524119 60.1713 23.0972 -2.66212 0.379182 -3.84812 30.9783 4.17341 -4.1816 -6.26201 0.500642 0.763787 3.46839 -4.31972 6.59868 -1.96162 0.480744 -7.56744 9.45681 2.98177e-016 7.95139e-016 -0 2.53347 -20.126 1.7191 2.92517 24.5458 13.384 -13.5802 -4.64915 -25.0734 -7.33018e-016 -9.93923e-017 1.59028e-015 
6.68502 133.455 -52.8481 0.318009 3.3449 1.10294 -0.478268 7.56764 -5.75442 -0.62328 -0.237971 -1.92805 2.99233 17.6228 -17.4675 14.7478 -3.09913 -15.7188 3.1968 8.03062 -4.29961 -55.2147 39.4618 -7.42713 9.45612 -8.90955 -41.3119 -8.5143 -5.66737 4.10141 3.92491 7.79385 -0.396309 60.395 22.6884 -2.96313 0.712057 -4.10666 30.2972 3.99743 -4.51677 -6.2311 0.465301 1.05485 3.66129 -4.27173 6.61473 -2.49463 0.391625 -7.88521 9.67528 1.98785e-016 -7.95139e-016 -3.18055e-015 2.62726 -20.1818 1.82565 2.74743 25.2249 14.197 -13.856 -4.98448 -25.9819 1.56543e-015 -9.93923e-017 -0 
6.60278 133.452 -52.4225 0.281666 3.41082 1.03571 -0.101132 7.63445 -5.58901 -0.637856 -0.600376 -1.86678 2.64537 17.655 -15.9472 14.158 0.117516 -14.6173 3.0835 8.10429 -4.05554 -55.4764 39.7663 -7.41399 9.29258 -8.36281 -40.86 -8.34977 -5.22235 4.20823 3.94549 7.88858 -0.297909 60.4346 22.5221 -3.06286 1.03459 -4.45513 29.5886 4.08876 -4.94924 -6.2049 0.493026 1.203 4.06581 -4.13993 6.66964 -2.63768 0.270422 -8.05745 9.57119 1.98785e-016 -3.97569e-016 1.59028e-015 2.77148 -20.4353 2.01813 2.75967 26.0746 14.7143 -13.8748 -5.06407 -26.5851 -1.14922e-016 1.2424e-016 -0 
6.51631 133.489 -51.9965 0.271438 3.4976 0.930131 0.187508 7.68841 -5.40678 -0.552906 -0.941898 -1.80095 2.58465 17.8509 -14.4771 13.0831 3.20249 -13.5711 2.88365 8.09897 -3.80567 -55.8165 40.1919 -7.2698 9.17691 -8.09471 -40.3339 -8.09129 -5.0373 4.2532 3.78304 7.8442 -0.163458 60.6222 22.6507 -3.2116 1.36445 -4.9005 28.8744 4.00961 -5.46693 -6.18439 0.487866 1.19181 4.32343 -4.01088 7.01471 -2.56032 0.179595 -8.18539 9.32533 4.96962e-016 7.95139e-016 3.18055e-015 2.87505 -20.5773 2.08535 2.72701 26.5393 14.2881 -13.5786 -5.13218 -26.2501 1.04362e-015 -4.96962e-017 -7.95139e-016 
6.44102 133.539 -51.5469 0.332481 3.48591 0.858665 0.433553 7.79196 -5.23555 -0.530748 -1.20206 -1.73938 2.47163 18.1636 -13.0089 12.2646 6.33922 -12.4562 2.7056 8.2202 -3.58817 -56.1461 40.4435 -7.12007 9.1541 -8.00354 -39.9564 -8.17128 -4.99486 4.30566 3.72552 7.76256 -0.073807 60.7033 22.8667 -3.34187 1.4917 -5.35463 28.2674 4.5116 -5.97137 -6.17168 0.343499 1.16221 4.59141 -3.76607 7.68552 -2.90461 0.578744 -8.18928 9.3619 -1.98785e-016 2.38542e-015 3.18055e-015 2.84163 -20.3228 2.08875 2.73914 26.553 13.924 -13.5097 -5.32477 -25.9814 9.44227e-016 9.93923e-017 -7.95139e-016 
6.36129 133.571 -51.0585 0.439424 3.43916 0.908825 0.643001 7.80169 -5.12171 -0.482112 -1.30674 -1.69677 2.64255 18.8117 -11.5842 11.0664 8.80366 -11.289 2.44521 8.26706 -3.35938 -56.3744 40.7811 -6.95174 9.00535 -8.12027 -39.6363 -8.11956 -5.19817 4.37887 3.75771 7.79719 -0.057665 60.5941 23.1273 -3.34157 1.57148 -5.68024 27.8734 4.55336 -6.31683 -6.26627 0.104333 1.00567 4.90107 -3.38095 8.63086 -3.00934 0.455072 -8.37913 9.21027 -5.96354e-016 7.95139e-016 1.59028e-015 2.69113 -19.8505 1.98747 2.80927 26.2966 13.3641 -13.4213 -5.68439 -25.5557 -8.44835e-016 9.93923e-017 -1.59028e-015 
6.2529 133.564 -50.5475 0.552129 3.38902 1.05909 0.880189 7.7001 -5.03855 -0.496473 -1.26828 -1.66417 2.76988 19.6266 -10.2462 9.99679 11.0028 -10.1296 2.27694 8.2922 -3.05137 -56.4841 41.1151 -6.92334 8.61155 -8.38308 -39.3934 -8.03058 -5.61554 4.28755 3.65818 7.74237 -0.011526 60.6565 23.0857 -3.42094 1.60539 -5.84421 27.6053 4.77583 -6.49932 -6.31978 -0.132025 0.742263 5.06635 -2.99943 9.93405 -3.24683 0.411453 -8.92476 9.34989 5.96354e-016 0 1.59028e-015 2.58659 -19.2511 1.89326 2.7987 25.9367 13.4674 -13.5111 -6.04915 -25.795 -1.63997e-015 0 -0 
